<svg xmlns="http://www.w3.org/2000/svg" width="1600" height="420" viewBox="0 0 1600 420" role="img" aria-label="KQL Threat Hunting — Beginner Guide">
  <defs>
    <linearGradient id="bg" x1="0" y1="0" x2="1" y2="1">
      <stop offset="0" stop-color="#0B1220"/>
      <stop offset="1" stop-color="#0F1B33"/>
    </linearGradient>

    <pattern id="grid" width="40" height="40" patternUnits="userSpaceOnUse">
      <path d="M40 0H0V40" fill="none" stroke="#9FB3C8" stroke-opacity="0.08" stroke-width="1"/>
    </pattern>

    <filter id="softGlow" x="-20%" y="-20%" width="140%" height="140%">
      <feGaussianBlur stdDeviation="6" result="b"/>
      <feColorMatrix in="b" type="matrix" values="
        1 0 0 0 0
        0 1 0 0 0
        0 0 1 0 0
        0 0 0 0.35 0" result="g"/>
      <feMerge>
        <feMergeNode in="g"/>
        <feMergeNode in="SourceGraphic"/>
      </feMerge>
    </filter>

    <linearGradient id="pulseGrad" x1="0" y1="0" x2="1" y2="0">
      <stop offset="0" stop-color="#67B8FF" stop-opacity="0"/>
      <stop offset="0.5" stop-color="#67B8FF" stop-opacity="0.9"/>
      <stop offset="1" stop-color="#67B8FF" stop-opacity="0"/>
    </linearGradient>

    <linearGradient id="accentGrad" x1="0" y1="0" x2="1" y2="1">
      <stop offset="0" stop-color="#67B8FF"/>
      <stop offset="1" stop-color="#8BE9A8"/>
    </linearGradient>

    <clipPath id="clip">
      <rect x="36" y="28" width="1528" height="364" rx="24"/>
    </clipPath>
  </defs>

  <!-- Card -->
  <rect x="24" y="20" width="1552" height="380" rx="28" fill="url(#bg)" stroke="#A8B7CC" stroke-opacity="0.12"/>

  <g clip-path="url(#clip)">
    <!-- Grid -->
    <rect x="36" y="28" width="1528" height="364" fill="url(#grid)"/>

    <!-- Subtle diagonal wash -->
    <path d="M-200 420 L900 -80 L1800 420 Z" fill="#67B8FF" opacity="0.06"/>

    <!-- Static guide rails -->
    <path d="M120 310 C420 220, 680 250, 980 170 C1180 120, 1340 110, 1520 150"
          fill="none" stroke="#67B8FF" stroke-opacity="0.18" stroke-width="2"/>
    <path d="M80 270 C380 180, 650 210, 960 130 C1140 85, 1330 80, 1540 120"
          fill="none" stroke="#8BE9A8" stroke-opacity="0.14" stroke-width="2"/>

    <!-- Animated pulse line -->
    <g filter="url(#softGlow)">
      <path id="pulsePath"
            d="M120 310 C420 220, 680 250, 980 170 C1180 120, 1340 110, 1520 150"
            fill="none" stroke="url(#pulseGrad)" stroke-width="6" stroke-linecap="round"
            stroke-dasharray="120 1400">
        <animate attributeName="stroke-dashoffset" from="0" to="-1520" dur="3.2s" repeatCount="indefinite"/>
      </path>
    </g>

    <!-- Left accent bar -->
    <rect x="70" y="80" width="6" height="260" rx="3" fill="url(#accentGrad)" opacity="0.9"/>

    <!-- Header text -->
    <text x="110" y="140" font-family="ui-sans-serif, system-ui, Segoe UI, Roboto, Arial"
          font-size="44" font-weight="800" fill="#EAF2FF">
      KQL Threat Hunting
    </text>
    <text x="110" y="178" font-family="ui-sans-serif, system-ui, Segoe UI, Roboto, Arial"
          font-size="22" font-weight="600" fill="#CFE0F7" opacity="0.95">
      Beginner Guide • Microsoft Sentinel / Defender XDR • Investigation-first workflow
    </text>

    <!-- Badge chips -->
    <g font-family="ui-sans-serif, system-ui, Segoe UI, Roboto, Arial" font-size="14" font-weight="700">
      <rect x="110" y="210" width="110" height="34" rx="17" fill="#111A2E" stroke="#A8B7CC" stroke-opacity="0.15"/>
      <text x="136" y="232" fill="#CFE0F7">KQL</text>

      <rect x="230" y="210" width="170" height="34" rx="17" fill="#111A2E" stroke="#A8B7CC" stroke-opacity="0.15"/>
      <text x="254" y="232" fill="#CFE0F7">Threat Hunting</text>

      <rect x="410" y="210" width="170" height="34" rx="17" fill="#111A2E" stroke="#A8B7CC" stroke-opacity="0.15"/>
      <text x="434" y="232" fill="#CFE0F7">MITRE ATT&amp;CK</text>

      <rect x="590" y="210" width="160" height="34" rx="17" fill="#111A2E" stroke="#A8B7CC" stroke-opacity="0.15"/>
      <text x="614" y="232" fill="#CFE0F7">Evidence Chain</text>
    </g>

    <!-- Right panel: minimal “telemetry” cards -->
    <g transform="translate(980 88)" font-family="ui-sans-serif, system-ui, Segoe UI, Roboto, Arial">
      <rect x="0" y="0" width="520" height="250" rx="18" fill="#0E1730" stroke="#A8B7CC" stroke-opacity="0.14"/>
      <text x="24" y="44" font-size="16" font-weight="800" fill="#EAF2FF">Telemetry → Hunt Pivots</text>
      <text x="24" y="72" font-size="13" font-weight="600" fill="#CFE0F7" opacity="0.9">
        DeviceLogonEvents • DeviceProcessEvents • DeviceNetworkEvents
      </text>

      <!-- tiny bars -->
      <g opacity="0.95">
        <rect x="24" y="100" width="180" height="10" rx="5" fill="#67B8FF" opacity="0.65"/>
        <rect x="24" y="122" width="320" height="10" rx="5" fill="#8BE9A8" opacity="0.55"/>
        <rect x="24" y="144" width="260" height="10" rx="5" fill="#67B8FF" opacity="0.45"/>
        <rect x="24" y="166" width="370" height="10" rx="5" fill="#8BE9A8" opacity="0.40"/>
      </g>

      <!-- mini timeline -->
      <g transform="translate(24 196)">
        <path d="M0 18H472" stroke="#CFE0F7" stroke-opacity="0.18" stroke-width="2" stroke-linecap="round"/>
        <circle cx="70" cy="18" r="6" fill="#67B8FF" opacity="0.9"/>
        <circle cx="190" cy="18" r="6" fill="#8BE9A8" opacity="0.85"/>
        <circle cx="320" cy="18" r="6" fill="#67B8FF" opacity="0.8"/>
        <circle cx="430" cy="18" r="6" fill="#8BE9A8" opacity="0.75"/>
        <circle cx="70" cy="18" r="12" fill="#67B8FF" opacity="0.16">
          <animate attributeName="r" values="10;16;10" dur="2.2s" repeatCount="indefinite"/>
          <animate attributeName="opacity" values="0.16;0.06;0.16" dur="2.2s" repeatCount="indefinite"/>
        </circle>
      </g>
    </g>
  </g>

  <!-- Footer hint -->
  <text x="52" y="404" font-family="ui-sans-serif, system-ui, Segoe UI, Roboto, Arial"
        font-size="12" fill="#AFC3DE" opacity="0.65">
    docs/diagrams/hero.svg
  </text>
</svg>